<?xml version="1.0" encoding="UTF-8"?>
<svg version="1.1" xmlns="http://www.w3.org/2000/svg" width="288" height="288">
<path d="M0 0 C0.82564453 0.23605957 1.65128906 0.47211914 2.50195312 0.71533203 C19.62616105 5.81119667 36.10522456 13.67679494 50 25 C50.79229004 25.64437012 50.79229004 25.64437012 51.60058594 26.30175781 C75.90230716 46.17485592 93.66166728 71.49547987 102 102 C102.19754883 102.7120459 102.39509766 103.4240918 102.59863281 104.15771484 C108.70511531 127.28939034 108.58180401 154.9991228 102 178 C101.76394043 178.82564453 101.52788086 179.65128906 101.28466797 180.50195312 C96.18880333 197.62616105 88.32320506 214.10522456 77 228 C76.35562988 228.79229004 76.35562988 228.79229004 75.69824219 229.60058594 C55.82514408 253.90230716 30.50452013 271.66166728 0 280 C-0.7120459 280.19754883 -1.4240918 280.39509766 -2.15771484 280.59863281 C-25.28939034 286.70511531 -52.9991228 286.58180401 -76 280 C-76.82564453 279.76394043 -77.65128906 279.52788086 -78.50195312 279.28466797 C-95.62616105 274.18880333 -112.10522456 266.32320506 -126 255 C-126.79229004 254.35562988 -126.79229004 254.35562988 -127.60058594 253.69824219 C-151.90230716 233.82514408 -169.66166728 208.50452013 -178 178 C-178.19754883 177.2879541 -178.39509766 176.5759082 -178.59863281 175.84228516 C-184.70511531 152.71060966 -184.58180401 125.0008772 -178 102 C-177.76394043 101.17435547 -177.52788086 100.34871094 -177.28466797 99.49804688 C-172.18880333 82.37383895 -164.32320506 65.89477544 -153 52 C-152.57041992 51.47180664 -152.14083984 50.94361328 -151.69824219 50.39941406 C-131.82514408 26.09769284 -106.50452013 8.33833272 -76 0 C-75.2879541 -0.19754883 -74.5759082 -0.39509766 -73.84228516 -0.59863281 C-50.71060966 -6.70511531 -23.0008772 -6.58180401 0 0 Z M-101.5 84.375 C-102.6034375 84.93960938 -103.706875 85.50421875 -104.84375 86.0859375 C-110.10334024 89.27554049 -114.15791524 92.56336745 -117.25 98 C-117.72953125 98.825 -118.2090625 99.65 -118.703125 100.5 C-123.283684 109.32999325 -124.40760986 118.58255133 -121.75 128.1875 C-118.96741148 136.49679661 -113.7006392 142.88057508 -105.97265625 147.109375 C-97.26706057 150.54622097 -87.3049623 150.24812748 -78.625 147 C-70.65797465 143.21831863 -64.84683634 137.65376181 -61.62109375 129.3671875 C-60.22452707 124.04442395 -60.12545008 119.09891981 -62.25 114 C-64.21135678 111.75844939 -65.11815622 110.7788767 -68 110 C-72.86986982 110.07854629 -75.15942479 110.47662298 -79.3125 113.0625 C-84.50076515 118.73339447 -85.36566304 125.12765726 -86.375 132.58203125 C-87.08603247 135.33283812 -87.68962555 136.36790062 -90 138 C-94.41670354 138.95010483 -98.77731538 138.45944996 -102.8125 136.4375 C-107.21863783 133.55459775 -109.21391391 129.55477979 -110.75 124.5625 C-111.67376652 115.09389318 -110.02115922 107.85216482 -104.9375 99.6875 C-94.61519571 90.24368969 -83.38148214 88.64029744 -69.90869141 88.68432617 C-67.87218531 88.68750439 -65.83711051 88.66389943 -63.80078125 88.63867188 C-61.85365234 88.63770508 -61.85365234 88.63770508 -59.8671875 88.63671875 C-58.10544189 88.63224731 -58.10544189 88.63224731 -56.30810547 88.62768555 C-52.57559767 89.04776484 -50.16677505 89.99793815 -47 92 C-45.69010126 95.92969623 -45.83596892 99.68505779 -45.82299805 103.7824707 C-45.81642685 104.68035309 -45.80985565 105.57823547 -45.80308533 106.50332642 C-45.78335944 109.47747887 -45.77169181 112.45158086 -45.76171875 115.42578125 C-45.75764322 116.44156942 -45.7535677 117.4573576 -45.74936867 118.50392723 C-45.72851181 123.87948783 -45.71420793 129.25502293 -45.70483398 134.63061523 C-45.69376526 140.18244592 -45.65935873 145.73387628 -45.61966228 151.28556538 C-45.59351869 155.55525966 -45.58514419 159.82485818 -45.58155251 164.09462547 C-45.57668139 166.14114272 -45.56505252 168.18765554 -45.54651451 170.23409462 C-45.52216945 173.09950138 -45.5230796 175.9638672 -45.5300293 178.8293457 C-45.51721924 179.6726796 -45.50440918 180.51601349 -45.49121094 181.38490295 C-45.53824095 186.71133267 -46.42198678 189.79641647 -50 194 C-52.578125 195.2421875 -52.578125 195.2421875 -55.25 195.875 C-56.14203125 196.09929687 -57.0340625 196.32359375 -57.953125 196.5546875 C-58.62859375 196.70164062 -59.3040625 196.84859375 -60 197 C-60 199.31 -60 201.62 -60 204 C-42.84 204 -25.68 204 -8 204 C-8 201.69 -8 199.38 -8 197 C-8.67546875 196.84144531 -9.3509375 196.68289062 -10.046875 196.51953125 C-17.36300915 194.60591813 -17.36300915 194.60591813 -20.5625 191.5625 C-22.59901404 187.93219236 -23.11828496 184.81848488 -23.20532227 180.69042969 C-23.2352401 179.4295755 -23.2352401 179.4295755 -23.26576233 178.14324951 C-23.28247482 177.24519592 -23.29918732 176.34714233 -23.31640625 175.421875 C-23.33718735 174.4953009 -23.35796844 173.56872681 -23.37937927 172.61407471 C-23.44466961 169.65945728 -23.50366431 166.70475232 -23.5625 163.75 C-23.60570473 161.74478268 -23.64931965 159.73957415 -23.69335938 157.734375 C-23.80032999 152.82300596 -23.90165518 147.91154903 -24 143 C-18.69747445 143.04425766 -13.39612779 143.11420012 -8.09423828 143.20751953 C-6.29225061 143.23567053 -4.49014081 143.25691422 -2.68798828 143.27099609 C-0.09083802 143.29250755 2.50485295 143.33919757 5.1015625 143.390625 C5.9017984 143.39185364 6.7020343 143.39308228 7.52651978 143.39434814 C12.77181409 143.53038023 15.85076862 144.50641788 20 148 C21.2421875 150.578125 21.2421875 150.578125 21.875 153.25 C22.21144531 154.58804688 22.21144531 154.58804688 22.5546875 155.953125 C22.70164063 156.62859375 22.84859375 157.3040625 23 158 C24.65 158 26.3 158 28 158 C28 144.47 28 130.94 28 117 C26.68 117 25.36 117 24 117 C23.35309078 118.6037331 22.70751236 120.20800306 22.0625 121.8125 C21.70285156 122.70582031 21.34320313 123.59914062 20.97265625 124.51953125 C20.26386514 126.3270909 19.6139753 128.15807409 19 130 C13.67546738 132.52214703 8.87437518 133.18665424 3.05078125 133.31640625 C2.27816452 133.33718735 1.50554779 133.35796844 0.70951843 133.37937927 C-1.7560648 133.44471038 -4.22175361 133.50368315 -6.6875 133.5625 C-8.36003691 133.60570087 -10.03256319 133.64931566 -11.70507812 133.69335938 C-15.8032775 133.8003749 -19.90158296 133.90168857 -24 134 C-23.9062306 128.96427812 -23.80008491 123.92902375 -23.68261719 118.89379883 C-23.64440715 117.18195686 -23.60954048 115.47003678 -23.578125 113.75805664 C-23.53230062 111.29284817 -23.47433587 108.82817367 -23.4140625 106.36328125 C-23.40251129 105.60163162 -23.39096008 104.83998199 -23.37905884 104.05525208 C-23.2662428 99.96514192 -22.91429348 96.64722835 -21 93 C-15.59799094 88.12076601 -9.80940141 88.81681381 -2.9375 88.8125 C-1.43799805 88.79413086 -1.43799805 88.79413086 0.09179688 88.77539062 C16.30360603 88.74378866 28.48174998 93.42613703 40 104.875 C41.00521854 105.91163162 42.00725683 106.95141503 43 108 C45.475 107.01 45.475 107.01 48 106 C46.00667932 99.60703339 43.58525386 93.52953606 40.8125 87.4375 C40.44447266 86.61958984 40.07644531 85.80167969 39.69726562 84.95898438 C38.80204987 82.97090782 37.9015835 80.98519692 37 79 C27.20834968 78.86667455 17.41666634 78.73616968 7.6249361 78.60884857 C3.07358831 78.549588 -1.47774496 78.48950963 -6.02905273 78.42724609 C-15.73145005 78.29499225 -25.43382496 78.1743032 -35.13667107 78.07980347 C-39.50597599 78.03721674 -43.87509266 77.98977277 -48.24420166 77.93017578 C-52.4592484 77.87321684 -56.67418374 77.83205951 -60.88950539 77.80201721 C-62.44412662 77.78845217 -63.99871349 77.76966882 -65.55319786 77.74497986 C-78.06836872 77.55175584 -90.21614303 78.43754193 -101.5 84.375 Z " fill="#ED1442" transform="translate(182,4)"/>
</svg>
